<svg viewBox="0 0 1280 720" xmlns="http://www.w3.org/2000/svg" role="img" aria-labelledby="title desc">
  <title id="title">ECloe Pay real-ready overview</title>
  <desc id="desc">ECloe Pay architecture showing Demo Web, API Gateway and Auth boundary, Demo BFF, Pay Transaction API, Engine Decision API, Pay Transaction Store with transactional outbox, Outbox Publisher, Service Bus, Decision and Reward Store, Artifact Export Service, Blob Storage, Key Vault, and Application Insights.</desc>
  <defs>
    <linearGradient id="ecloeBg" x1="0" y1="0" x2="1" y2="1">
      <stop offset="0%" stop-color="#fffde8"/>
      <stop offset="58%" stop-color="#f7ffb9"/>
      <stop offset="100%" stop-color="#dcfff0"/>
    </linearGradient>
    <marker id="arrow" viewBox="0 0 10 10" refX="8" refY="5" markerWidth="7" markerHeight="7" orient="auto-start-reverse">
      <path d="M 0 0 L 10 5 L 0 10 z" fill="#087f83"/>
    </marker>
    <marker id="arrow-blue" viewBox="0 0 10 10" refX="8" refY="5" markerWidth="7" markerHeight="7" orient="auto-start-reverse">
      <path d="M 0 0 L 10 5 L 0 10 z" fill="#0bb9b0"/>
    </marker>

    <g id="icon-web" fill="none" stroke="currentColor" stroke-width="2.3" stroke-linecap="round" stroke-linejoin="round">
      <rect x="7" y="9" width="26" height="19" rx="3"/>
      <path d="M7 15h26M15 33h10M20 28v5"/>
    </g>
    <g id="icon-shield" fill="none" stroke="currentColor" stroke-width="2.3" stroke-linecap="round" stroke-linejoin="round">
      <path d="M20 5l12 5v9c0 8-5 13-12 16C13 32 8 27 8 19v-9l12-5z"/>
      <path d="M15 20l4 4 7-8"/>
    </g>
    <g id="icon-api" fill="none" stroke="currentColor" stroke-width="2.3" stroke-linecap="round" stroke-linejoin="round">
      <path d="M13 12l-7 8 7 8M27 12l7 8-7 8M23 9l-6 22"/>
    </g>
    <g id="icon-wallet" fill="none" stroke="currentColor" stroke-width="2.3" stroke-linecap="round" stroke-linejoin="round">
      <path d="M7 13h24a4 4 0 0 1 4 4v13H9a4 4 0 0 1-4-4V12a4 4 0 0 1 4-4h20v5"/>
      <path d="M27 22h8M29 22h1"/>
    </g>
    <g id="icon-cart" fill="none" stroke="currentColor" stroke-width="2.3" stroke-linecap="round" stroke-linejoin="round">
      <path d="M6 8h4l4 17h16l4-12H13"/>
      <circle cx="17" cy="32" r="2.4"/>
      <circle cx="29" cy="32" r="2.4"/>
    </g>
    <g id="icon-decision" fill="none" stroke="currentColor" stroke-width="2.3" stroke-linecap="round" stroke-linejoin="round">
      <path d="M8 13h8M8 27h8M24 20h8"/>
      <circle cx="20" cy="13" r="4"/>
      <circle cx="20" cy="27" r="4"/>
      <circle cx="20" cy="20" r="4"/>
    </g>
    <g id="icon-database" fill="none" stroke="currentColor" stroke-width="2.3" stroke-linecap="round" stroke-linejoin="round">
      <ellipse cx="20" cy="10" rx="12" ry="5"/>
      <path d="M8 10v18c0 3 5 5 12 5s12-2 12-5V10"/>
      <path d="M8 19c0 3 5 5 12 5s12-2 12-5"/>
    </g>
    <g id="icon-bus" fill="none" stroke="currentColor" stroke-width="2.3" stroke-linecap="round" stroke-linejoin="round">
      <rect x="7" y="10" width="26" height="20" rx="4"/>
      <path d="M11 16h18M11 22h12"/>
      <path d="M14 34v-4M26 34v-4"/>
    </g>
    <g id="icon-worker" fill="none" stroke="currentColor" stroke-width="2.3" stroke-linecap="round" stroke-linejoin="round">
      <circle cx="20" cy="20" r="5"/>
      <path d="M20 6v5M20 29v5M6 20h5M29 20h5M10 10l4 4M26 26l4 4M30 10l-4 4M14 26l-4 4"/>
    </g>
    <g id="icon-artifact" fill="none" stroke="currentColor" stroke-width="2.3" stroke-linecap="round" stroke-linejoin="round">
      <path d="M7 12h10l3 4h13v15H7z"/>
      <path d="M15 25h10M20 20v10"/>
    </g>
    <g id="icon-chart" fill="none" stroke="currentColor" stroke-width="2.3" stroke-linecap="round" stroke-linejoin="round">
      <path d="M8 31h24"/>
      <rect x="10" y="20" width="5" height="11" rx="1"/>
      <rect x="18" y="14" width="5" height="17" rx="1"/>
      <rect x="26" y="9" width="5" height="22" rx="1"/>
    </g>
    <g id="icon-doc" fill="none" stroke="currentColor" stroke-width="2.3" stroke-linecap="round" stroke-linejoin="round">
      <path d="M12 6h12l6 6v22H12z"/>
      <path d="M24 6v8h6M16 20h12M16 26h12"/>
    </g>
    <g id="icon-eye" fill="none" stroke="currentColor" stroke-width="2.3" stroke-linecap="round" stroke-linejoin="round">
      <path d="M5 20s6-9 15-9 15 9 15 9-6 9-15 9-15-9-15-9z"/>
      <circle cx="20" cy="20" r="4"/>
    </g>
  </defs>
  <rect width="1280" height="720" fill="url(#ecloeBg)"/>
  <text x="640" y="42" text-anchor="middle" font-family="Segoe UI, Helvetica, Arial, sans-serif" font-size="24" font-weight="700" fill="#14343b">ECloe Pay Real-Ready Overview</text>
  <text x="640" y="68" text-anchor="middle" font-family="Segoe UI, Helvetica, Arial, sans-serif" font-size="13" fill="#087f83">Runtime boundaries, transactional outbox, domain stores, security, and observability</text>

  <rect x="40" y="105" width="250" height="455" rx="18" fill="url(#ecloeBg)" stroke="#8bd9cf"/>
  <text x="65" y="132" font-family="Segoe UI, Helvetica, Arial, sans-serif" font-size="13" font-weight="700" fill="#087f83">Experience and perimeter</text>
  <rect x="75" y="170" width="180" height="62" rx="10" fill="#d9fff0" stroke="#0bb9b0" stroke-width="1.5" data-card="true"/>
  <use href="#icon-web" transform="translate(83 180) scale(0.30)" color="#0bb9b0" aria-hidden="true"/>
  <text x="123" y="202" text-anchor="start" font-family="Segoe UI, Helvetica, Arial, sans-serif" font-size="15" font-weight="700" fill="#14343b">Web</text>
  <text x="165" y="221" text-anchor="middle" font-family="Segoe UI, Helvetica, Arial, sans-serif" font-size="11.5" fill="#087f83">Market and Pay UI</text>
  <rect x="75" y="285" width="180" height="72" rx="10" fill="#fffbd9" stroke="#8bd9cf" data-card="true"/>
  <use href="#icon-shield" transform="translate(83 295) scale(0.30)" color="#087f83" aria-hidden="true"/>
  <text x="123" y="312" text-anchor="start" font-family="Segoe UI, Helvetica, Arial, sans-serif" font-size="14" font-weight="700" fill="#14343b">API Gateway</text>
  <text x="165" y="331" text-anchor="middle" font-family="Segoe UI, Helvetica, Arial, sans-serif" font-size="11.5" fill="#087f83">Auth, JWT, rate</text>
  <text x="165" y="348" text-anchor="middle" font-family="Segoe UI, Helvetica, Arial, sans-serif" font-size="11.5" fill="#087f83">limit, correlation</text>
  <rect x="75" y="410" width="180" height="72" rx="10" fill="#fffbd9" stroke="#8bd9cf" data-card="true"/>
  <use href="#icon-api" transform="translate(83 420) scale(0.30)" color="#087f83" aria-hidden="true"/>
  <text x="123" y="438" text-anchor="start" font-family="Segoe UI, Helvetica, Arial, sans-serif" font-size="14" font-weight="700" fill="#14343b">Demo BFF</text>
  <text x="165" y="457" text-anchor="middle" font-family="Segoe UI, Helvetica, Arial, sans-serif" font-size="11.5" fill="#087f83">Demo session and</text>
  <text x="165" y="474" text-anchor="middle" font-family="Segoe UI, Helvetica, Arial, sans-serif" font-size="11.5" fill="#087f83">journey orchestration</text>
  <line x1="165" y1="232" x2="165" y2="285" stroke="#0bb9b0" stroke-width="2.4" marker-end="url(#arrow-blue)"/>
  <text x="205" y="263" font-family="Segoe UI, Helvetica, Arial, sans-serif" font-size="11" fill="#0bb9b0">HTTPS</text>
  <line x1="165" y1="357" x2="165" y2="410" stroke="#087f83" stroke-width="2.2" marker-end="url(#arrow)"/>
  <text x="195" y="388" font-family="Segoe UI, Helvetica, Arial, sans-serif" font-size="11" fill="#087f83">route</text>

  <rect x="355" y="105" width="295" height="455" rx="18" fill="url(#ecloeBg)" stroke="#8bd9cf"/>
  <text x="380" y="132" font-family="Segoe UI, Helvetica, Arial, sans-serif" font-size="13" font-weight="700" fill="#087f83">Domain APIs</text>
  <rect x="405" y="195" width="195" height="78" rx="10" fill="#d9fff0" stroke="#0bb9b0" stroke-width="1.5" data-card="true"/>
  <use href="#icon-api" transform="translate(413 205) scale(0.30)" color="#0bb9b0" aria-hidden="true"/>
  <text x="449" y="224" text-anchor="start" font-family="Segoe UI, Helvetica, Arial, sans-serif" font-size="13" font-weight="700" fill="#14343b">Pay Transaction API</text>
  <text x="502" y="244" text-anchor="middle" font-family="Segoe UI, Helvetica, Arial, sans-serif" font-size="11.5" fill="#087f83">Wallet, ledger,</text>
  <text x="502" y="262" text-anchor="middle" font-family="Segoe UI, Helvetica, Arial, sans-serif" font-size="11.5" fill="#087f83">payment state</text>
  <rect x="405" y="385" width="195" height="78" rx="10" fill="#fffbd9" stroke="#8bd9cf" data-card="true"/>
  <use href="#icon-api" transform="translate(413 395) scale(0.30)" color="#087f83" aria-hidden="true"/>
  <text x="449" y="414" text-anchor="start" font-family="Segoe UI, Helvetica, Arial, sans-serif" font-size="13" font-weight="700" fill="#14343b">Engine Decision API</text>
  <text x="502" y="434" text-anchor="middle" font-family="Segoe UI, Helvetica, Arial, sans-serif" font-size="11.5" fill="#087f83">Eligible-offer ranking</text>
  <text x="502" y="452" text-anchor="middle" font-family="Segoe UI, Helvetica, Arial, sans-serif" font-size="11.5" fill="#087f83">and reward ingest</text>
  <polyline points="255,445 330,445 330,234 405,234" fill="none" stroke="#0bb9b0" stroke-width="2.4" marker-end="url(#arrow-blue)"/>
  <text x="334" y="318" text-anchor="middle" font-family="Segoe UI, Helvetica, Arial, sans-serif" font-size="11" fill="#0bb9b0">wallet actions</text>
  <line x1="502" y1="273" x2="502" y2="385" stroke="#087f83" stroke-width="2.2" marker-end="url(#arrow)"/>
  <text x="535" y="334" font-family="Segoe UI, Helvetica, Arial, sans-serif" font-size="11" fill="#087f83">decision and reward calls</text>

  <rect x="720" y="105" width="500" height="455" rx="18" fill="url(#ecloeBg)" stroke="#8bd9cf"/>
  <text x="745" y="132" font-family="Segoe UI, Helvetica, Arial, sans-serif" font-size="13" font-weight="700" fill="#087f83">Stores and async integration</text>
  <rect x="770" y="170" width="190" height="82" rx="10" fill="#e5fff7" stroke="#0bb9b0" data-card="true"/>
  <use href="#icon-wallet" transform="translate(778 180) scale(0.30)" color="#0bb9b0" aria-hidden="true"/>
  <text x="814" y="202" text-anchor="start" font-family="Segoe UI, Helvetica, Arial, sans-serif" font-size="12.5" font-weight="700" fill="#14343b">Pay SQL + Outbox</text>
  <text x="865" y="222" text-anchor="middle" font-family="Segoe UI, Helvetica, Arial, sans-serif" font-size="11.5" fill="#087f83">Azure SQL</text>
  <text x="865" y="240" text-anchor="middle" font-family="Segoe UI, Helvetica, Arial, sans-serif" font-size="11.5" fill="#087f83">state + outbox row</text>
  <rect x="1010" y="170" width="160" height="82" rx="10" fill="#fffbd9" stroke="#8bd9cf" data-card="true"/>
  <use href="#icon-database" transform="translate(1018 180) scale(0.30)" color="#087f83" aria-hidden="true"/>
  <text x="1054" y="202" text-anchor="start" font-family="Segoe UI, Helvetica, Arial, sans-serif" font-size="12.5" font-weight="700" fill="#14343b">Outbox Publisher</text>
  <text x="1090" y="222" text-anchor="middle" font-family="Segoe UI, Helvetica, Arial, sans-serif" font-size="11.5" fill="#087f83">polls SQL outbox</text>
  <rect x="1010" y="320" width="160" height="70" rx="10" fill="#fffbd9" stroke="#8bd9cf" data-card="true"/>
  <use href="#icon-decision" transform="translate(1018 330) scale(0.30)" color="#087f83" aria-hidden="true"/>
  <text x="1054" y="352" text-anchor="start" font-family="Segoe UI, Helvetica, Arial, sans-serif" font-size="13" font-weight="700" fill="#14343b">Service Bus</text>
  <text x="1090" y="372" text-anchor="middle" font-family="Segoe UI, Helvetica, Arial, sans-serif" font-size="11.5" fill="#087f83">domain events</text>
  <rect x="770" y="320" width="190" height="70" rx="10" fill="#fffbd9" stroke="#8bd9cf" data-card="true"/>
  <use href="#icon-decision" transform="translate(778 330) scale(0.30)" color="#087f83" aria-hidden="true"/>
  <text x="814" y="352" text-anchor="start" font-family="Segoe UI, Helvetica, Arial, sans-serif" font-size="13" font-weight="700" fill="#14343b">Decision Store</text>
  <text x="865" y="372" text-anchor="middle" font-family="Segoe UI, Helvetica, Arial, sans-serif" font-size="11.5" fill="#087f83">Cosmos DB</text>
  <rect x="770" y="455" width="190" height="70" rx="10" fill="#fffbd9" stroke="#8bd9cf" data-card="true"/>
  <use href="#icon-worker" transform="translate(778 465) scale(0.30)" color="#087f83" aria-hidden="true"/>
  <text x="814" y="487" text-anchor="start" font-family="Segoe UI, Helvetica, Arial, sans-serif" font-size="13" font-weight="700" fill="#14343b">Report Export</text>
  <text x="865" y="507" text-anchor="middle" font-family="Segoe UI, Helvetica, Arial, sans-serif" font-size="11.5" fill="#087f83">writes reports</text>
  <rect x="1010" y="455" width="160" height="70" rx="10" fill="#fffbd9" stroke="#8bd9cf" data-card="true"/>
  <use href="#icon-artifact" transform="translate(1018 465) scale(0.30)" color="#087f83" aria-hidden="true"/>
  <text x="1054" y="487" text-anchor="start" font-family="Segoe UI, Helvetica, Arial, sans-serif" font-size="13" font-weight="700" fill="#14343b">Blob Storage</text>
  <text x="1090" y="507" text-anchor="middle" font-family="Segoe UI, Helvetica, Arial, sans-serif" font-size="11.5" fill="#087f83">artifacts only</text>

  <polyline points="600,234 685,234 685,211 770,211" fill="none" stroke="#0bb9b0" stroke-width="2.4" marker-end="url(#arrow-blue)"/>
  <text x="685" y="205" text-anchor="middle" font-family="Segoe UI, Helvetica, Arial, sans-serif" font-size="11" fill="#0bb9b0">persist transaction</text>
  <line x1="960" y1="211" x2="1010" y2="211" stroke="#087f83" stroke-width="2.2" marker-end="url(#arrow)"/>
  <text x="985" y="197" text-anchor="middle" font-family="Segoe UI, Helvetica, Arial, sans-serif" font-size="11" fill="#087f83">poll</text>
  <line x1="1090" y1="252" x2="1090" y2="320" stroke="#087f83" stroke-width="2.2" marker-end="url(#arrow)"/>
  <text x="1118" y="290" font-family="Segoe UI, Helvetica, Arial, sans-serif" font-size="11" fill="#087f83">publish</text>
  <polyline points="600,424 685,424 685,355 770,355" fill="none" stroke="#087f83" stroke-width="2.2" marker-end="url(#arrow)"/>
  <text x="665" y="377" text-anchor="middle" font-family="Segoe UI, Helvetica, Arial, sans-serif" font-size="11" fill="#087f83">write decision/reward</text>
  <line x1="960" y1="490" x2="1010" y2="490" stroke="#087f83" stroke-width="2.2" marker-end="url(#arrow)"/>
  <text x="985" y="476" text-anchor="middle" font-family="Segoe UI, Helvetica, Arial, sans-serif" font-size="11" fill="#087f83">upload</text>

  <rect x="70" y="610" width="520" height="58" rx="12" fill="#fffbd9" stroke="#8bd9cf" data-card="true"/>
  <use href="#icon-shield" transform="translate(81 620) scale(0.30)" color="#087f83" aria-hidden="true"/>
  <text x="330" y="635" text-anchor="middle" font-family="Segoe UI, Helvetica, Arial, sans-serif" font-size="13" font-weight="700" fill="#14343b">Security</text>
  <text x="330" y="654" text-anchor="middle" font-family="Segoe UI, Helvetica, Arial, sans-serif" font-size="11.5" fill="#087f83">Gateway, Entra/JWT, CSRF for browser routes, rate limits, Key Vault secrets</text>
  <rect x="690" y="610" width="520" height="58" rx="12" fill="#fffbd9" stroke="#8bd9cf" data-card="true"/>
  <use href="#icon-eye" transform="translate(701 620) scale(0.30)" color="#087f83" aria-hidden="true"/>
  <text x="950" y="635" text-anchor="middle" font-family="Segoe UI, Helvetica, Arial, sans-serif" font-size="13" font-weight="700" fill="#14343b">Observability</text>
  <text x="950" y="654" text-anchor="middle" font-family="Segoe UI, Helvetica, Arial, sans-serif" font-size="11.5" fill="#087f83">Structured logs, metrics, traces, correlation IDs, Application Insights</text>
</svg>
